<svg xmlns="http://www.w3.org/2000/svg" xmlns:xlink="http://www.w3.org/1999/xlink" width="480" zoomAndPan="magnify" viewBox="0 0 360 74.999997" height="100" preserveAspectRatio="xMidYMid meet" version="1.0"><defs><g/><clipPath id="9ce3af0d73"><path d="M 7.5 0 L 82.441406 0 L 82.441406 74.941406 L 7.5 74.941406 Z M 7.5 0 " clip-rule="nonzero"/></clipPath><clipPath id="7b0c4c1a44"><path d="M 12.113281 4.613281 L 78.113281 4.613281 L 78.113281 70.613281 L 12.113281 70.613281 Z M 12.113281 4.613281 " clip-rule="nonzero"/></clipPath></defs><g clip-path="url(#9ce3af0d73)"><path fill="#313bac" d="M 44.96875 74.941406 C 34.964844 74.941406 25.546875 71.046875 18.476562 63.960938 C 11.394531 56.894531 7.5 47.472656 7.5 37.46875 C 7.5 27.464844 11.394531 18.046875 18.476562 10.976562 C 25.546875 3.894531 34.964844 0 44.96875 0 C 54.972656 0 64.394531 3.894531 71.460938 10.976562 C 78.546875 18.0625 82.441406 27.464844 82.441406 37.46875 C 82.441406 47.472656 78.546875 56.894531 71.460938 63.960938 C 64.394531 71.046875 54.972656 74.941406 44.96875 74.941406 Z M 44.96875 2.246094 C 35.566406 2.246094 26.714844 5.914062 20.066406 12.566406 C 13.414062 19.214844 9.746094 28.066406 9.746094 37.46875 C 9.746094 46.875 13.414062 55.726562 20.066406 62.375 C 26.714844 69.023438 35.566406 72.695312 44.96875 72.695312 C 54.375 72.695312 63.226562 69.023438 69.875 62.375 C 76.523438 55.726562 80.195312 46.875 80.195312 37.46875 C 80.195312 28.066406 76.523438 19.214844 69.875 12.566406 C 63.226562 5.914062 54.375 2.246094 44.96875 2.246094 Z M 44.96875 2.246094 " fill-opacity="1" fill-rule="nonzero"/></g><g clip-path="url(#7b0c4c1a44)"><path fill="#313bac" d="M 45.113281 4.613281 C 26.890625 4.613281 12.113281 19.390625 12.113281 37.613281 C 12.113281 55.839844 26.890625 70.613281 45.113281 70.613281 C 63.339844 70.613281 78.113281 55.839844 78.113281 37.613281 C 78.113281 19.390625 63.339844 4.613281 45.113281 4.613281 " fill-opacity="1" fill-rule="nonzero"/></g><g fill="#313bac" fill-opacity="1"><g transform="translate(92.958626, 50.008014)"><g><path d="M 17.859375 -26.203125 L 17.859375 -8.484375 C 17.859375 -5.710938 17.054688 -3.554688 15.453125 -2.015625 C 13.847656 -0.472656 11.640625 0.296875 8.828125 0.296875 C 5.253906 0.296875 2.25 -1.097656 -0.1875 -3.890625 L 2.875 -8.328125 C 4.75 -6.390625 6.582031 -5.421875 8.375 -5.421875 C 10.238281 -5.421875 11.171875 -6.492188 11.171875 -8.640625 L 11.171875 -20.8125 L 2.203125 -20.8125 L 2.203125 -26.203125 Z M 17.859375 -26.203125 "/></g></g></g><g fill="#313bac" fill-opacity="1"><g transform="translate(116.054092, 50.008014)"><g><path d="M 15.03125 -26.390625 C 19.082031 -26.390625 22.453125 -25.125 25.140625 -22.59375 C 27.835938 -20.0625 29.1875 -16.90625 29.1875 -13.125 C 29.1875 -9.3125 27.832031 -6.117188 25.125 -3.546875 C 22.425781 -0.984375 19.054688 0.296875 15.015625 0.296875 C 10.984375 0.296875 7.617188 -0.976562 4.921875 -3.53125 C 2.234375 -6.082031 0.890625 -9.28125 0.890625 -13.125 C 0.890625 -16.9375 2.234375 -20.097656 4.921875 -22.609375 C 7.617188 -25.128906 10.988281 -26.390625 15.03125 -26.390625 Z M 15.09375 -20.8125 C 13.050781 -20.8125 11.304688 -20.070312 9.859375 -18.59375 C 8.421875 -17.113281 7.703125 -15.273438 7.703125 -13.078125 C 7.703125 -10.890625 8.429688 -9.039062 9.890625 -7.53125 C 11.347656 -6.019531 13.082031 -5.265625 15.09375 -5.265625 C 17.113281 -5.265625 18.828125 -6.019531 20.234375 -7.53125 C 21.640625 -9.039062 22.34375 -10.890625 22.34375 -13.078125 C 22.34375 -15.273438 21.640625 -17.113281 20.234375 -18.59375 C 18.828125 -20.070312 17.113281 -20.8125 15.09375 -20.8125 Z M 15.09375 -20.8125 "/></g></g></g><g fill="#313bac" fill-opacity="1"><g transform="translate(149.202367, 50.008014)"><g><path d="M 18.390625 0 L 14.5 -7.359375 L 9.265625 -7.359375 L 9.265625 0 L 2.609375 0 L 2.609375 -26.15625 L 14.3125 -26.15625 C 17.78125 -26.15625 20.457031 -25.363281 22.34375 -23.78125 C 24.238281 -22.207031 25.1875 -19.960938 25.1875 -17.046875 C 25.1875 -13.003906 23.601562 -10.203125 20.4375 -8.640625 L 25.9375 0 Z M 9.265625 -12.59375 L 14.3125 -12.59375 C 15.757812 -12.59375 16.878906 -12.953125 17.671875 -13.671875 C 18.472656 -14.398438 18.875 -15.445312 18.875 -16.8125 C 18.875 -18.164062 18.472656 -19.191406 17.671875 -19.890625 C 16.878906 -20.585938 15.757812 -20.9375 14.3125 -20.9375 L 9.265625 -20.9375 Z M 9.265625 -12.59375 "/></g></g></g><g fill="#313bac" fill-opacity="1"><g transform="translate(179.323586, 50.008014)"><g><path d="M 2.609375 -26.15625 L 13.859375 -26.15625 C 17.972656 -26.15625 21.316406 -24.945312 23.890625 -22.53125 C 26.472656 -20.113281 27.765625 -16.960938 27.765625 -13.078125 C 27.765625 -9.210938 26.457031 -6.066406 23.84375 -3.640625 C 21.226562 -1.210938 17.816406 0 13.609375 0 L 2.609375 0 Z M 9.265625 -20.859375 L 9.265625 -5.3125 L 14.015625 -5.3125 C 16.054688 -5.3125 17.726562 -6.023438 19.03125 -7.453125 C 20.34375 -8.890625 21 -10.753906 21 -13.046875 C 21 -15.335938 20.3125 -17.210938 18.9375 -18.671875 C 17.570312 -20.128906 15.832031 -20.859375 13.71875 -20.859375 Z M 9.265625 -20.859375 "/></g></g></g><g fill="#313bac" fill-opacity="1"><g transform="translate(211.051756, 50.008014)"><g><path d="M 20 -4.828125 L 8.5625 -4.828125 L 6.65625 0 L -0.1875 0 L 11.09375 -26.15625 L 17.9375 -26.15625 L 28.96875 0 L 21.859375 0 Z M 18.046875 -9.859375 L 14.3125 -19.546875 L 10.5 -9.859375 Z M 18.046875 -9.859375 "/></g></g></g><g fill="#313bac" fill-opacity="1"><g transform="translate(242.892044, 50.008014)"><g><path d="M 26.765625 0 L 20.890625 0 L 8.859375 -16.109375 L 8.859375 0 L 2.609375 0 L 2.609375 -26.15625 L 8.484375 -26.15625 L 20.5625 -10.015625 L 20.5625 -26.15625 L 26.765625 -26.15625 Z M 26.765625 0 "/></g></g></g><g fill="#313bac" fill-opacity="1"><g transform="translate(275.330274, 50.008014)"><g><path d="M 9.265625 -5.5625 L 20.375 -5.5625 L 20.375 0 L 2.609375 0 L 2.609375 -26.15625 L 9.265625 -26.15625 Z M 9.265625 -5.5625 "/></g></g></g><g fill="#313bac" fill-opacity="1"><g transform="translate(299.322638, 50.008014)"><g><path d="M 23.09375 -20.9375 L 9.265625 -20.9375 L 9.265625 -15.734375 L 21.75 -15.734375 L 21.75 -10.5 L 9.265625 -10.5 L 9.265625 -5.234375 L 23.515625 -5.234375 L 23.515625 0 L 2.609375 0 L 2.609375 -26.15625 L 23.09375 -26.15625 Z M 23.09375 -20.9375 "/></g></g></g><g fill="#313bac" fill-opacity="1"><g transform="translate(327.575306, 50.008014)"><g><path d="M 23.09375 -20.9375 L 9.265625 -20.9375 L 9.265625 -15.734375 L 21.75 -15.734375 L 21.75 -10.5 L 9.265625 -10.5 L 9.265625 -5.234375 L 23.515625 -5.234375 L 23.515625 0 L 2.609375 0 L 2.609375 -26.15625 L 23.09375 -26.15625 Z M 23.09375 -20.9375 "/></g></g></g><g fill="#ffffff" fill-opacity="1"><g transform="translate(34.286532, 52.148806)"><g><path d="M 18.109375 -30.046875 L 18.109375 -9.265625 C 18.109375 -6.265625 17.28125 -3.929688 15.625 -2.265625 C 13.96875 -0.609375 11.675781 0.21875 8.75 0.21875 C 5.207031 0.21875 2.265625 -1.226562 -0.078125 -4.125 L 2.3125 -7.984375 C 4.34375 -5.773438 6.476562 -4.671875 8.71875 -4.671875 C 10.082031 -4.671875 11.132812 -5.078125 11.875 -5.890625 C 12.625 -6.710938 13 -7.894531 13 -9.4375 L 13 -25.5 L 2.625 -25.5 L 2.625 -30.046875 Z M 18.109375 -30.046875 "/></g></g></g></svg>