<svg xmlns="http://www.w3.org/2000/svg" xmlns:xlink="http://www.w3.org/1999/xlink" width="500" zoomAndPan="magnify" viewBox="0 0 375 374.999991" height="500" preserveAspectRatio="xMidYMid meet" version="1.0"><defs><g/><clipPath id="9d3a8dd7d9"><path d="M 0 0 L 374.699219 0 L 374.699219 374.699219 L 0 374.699219 Z M 0 0 " clip-rule="nonzero"/></clipPath><clipPath id="c724ebe00c"><path d="M 23.070312 23.070312 L 350.671875 23.070312 L 350.671875 350.671875 L 23.070312 350.671875 Z M 23.070312 23.070312 " clip-rule="nonzero"/></clipPath></defs><g clip-path="url(#9d3a8dd7d9)"><path fill="#313bac" d="M 187.351562 374.699219 C 137.332031 374.699219 90.230469 355.230469 54.886719 319.8125 C 19.46875 284.46875 0 237.371094 0 187.351562 C 0 137.332031 19.46875 90.230469 54.886719 54.886719 C 90.230469 19.46875 137.332031 0 187.351562 0 C 237.371094 0 284.46875 19.46875 319.8125 54.886719 C 355.230469 90.304688 374.699219 137.332031 374.699219 187.351562 C 374.699219 237.371094 355.230469 284.46875 319.8125 319.8125 C 284.46875 355.230469 237.371094 374.699219 187.351562 374.699219 Z M 187.351562 11.230469 C 140.324219 11.230469 96.070312 29.578125 62.824219 62.824219 C 29.578125 96.070312 11.230469 140.324219 11.230469 187.351562 C 11.230469 234.375 29.578125 278.628906 62.824219 311.875 C 96.070312 345.121094 140.324219 363.46875 187.351562 363.46875 C 234.375 363.46875 278.628906 345.121094 311.875 311.875 C 345.121094 278.628906 363.46875 234.375 363.46875 187.351562 C 363.46875 140.324219 345.121094 96.070312 311.875 62.824219 C 278.628906 29.578125 234.375 11.230469 187.351562 11.230469 Z M 187.351562 11.230469 " fill-opacity="1" fill-rule="nonzero"/></g><g clip-path="url(#c724ebe00c)"><path fill="#313bac" d="M 186.871094 23.070312 C 96.40625 23.070312 23.070312 96.40625 23.070312 186.871094 C 23.070312 277.335938 96.40625 350.671875 186.871094 350.671875 C 277.335938 350.671875 350.671875 277.335938 350.671875 186.871094 C 350.671875 96.40625 277.335938 23.070312 186.871094 23.070312 " fill-opacity="1" fill-rule="nonzero"/></g><g fill="#ffffff" fill-opacity="1"><g transform="translate(133.932629, 260.744037)"><g><path d="M 90.5625 -150.234375 L 90.5625 -46.359375 C 90.5625 -31.335938 86.410156 -19.675781 78.109375 -11.375 C 69.816406 -3.070312 58.375 1.078125 43.78125 1.078125 C 26.039062 1.078125 11.304688 -6.148438 -0.421875 -20.609375 L 11.59375 -39.921875 C 21.75 -28.898438 32.40625 -23.390625 43.5625 -23.390625 C 50.425781 -23.390625 55.71875 -25.425781 59.4375 -29.5 C 63.164062 -33.582031 65.03125 -39.488281 65.03125 -47.21875 L 65.03125 -127.484375 L 13.09375 -127.484375 L 13.09375 -150.234375 Z M 90.5625 -150.234375 "/></g></g></g></svg>